<?xml version="1.0" standalone="no"?>
<!DOCTYPE svg PUBLIC "-//W3C//DTD SVG 20010904//EN"
 "http://www.w3.org/TR/2001/REC-SVG-20010904/DTD/svg10.dtd">
<svg version="1.0" xmlns="http://www.w3.org/2000/svg"
 width="300.000000pt" height="300.000000pt" viewBox="0 0 300.000000 300.000000"
 preserveAspectRatio="xMidYMid meet">
<metadata>
Created by potrace 1.10, written by Peter Selinger 2001-2011
</metadata>
<g transform="translate(0.000000,300.000000) scale(0.100000,-0.100000)"
fill="#000000" stroke="none">
<path d="M2305 2298 c-8 -18 -21 -82 -30 -143 -8 -60 -21 -153 -29 -205 -8
-52 -22 -140 -30 -195 -33 -214 -74 -311 -143 -340 -26 -11 -33 -20 -33 -42 0
-60 45 -69 108 -23 36 26 47 29 85 24 98 -14 229 58 287 156 40 68 64 168 56
232 -7 57 -53 157 -123 269 -52 83 -66 133 -57 209 8 69 -3 90 -47 90 -23 0
-32 -7 -44 -32z m65 3 c3 -1 6 -20 7 -44 1 -32 -1 -37 -8 -22 -7 15 -7 11 -3
-14 4 -19 8 -49 9 -68 2 -19 13 -50 24 -69 12 -19 15 -32 9 -28 -7 4 -1 -6 15
-23 15 -16 25 -32 23 -34 -3 -3 6 -18 19 -33 14 -16 22 -33 18 -39 -3 -5 -1
-7 4 -4 10 7 56 -90 52 -109 -1 -5 0 -16 4 -24 14 -37 15 -65 5 -120 -7 -34
-16 -57 -21 -53 -6 4 -7 1 -2 -6 8 -14 -19 -73 -47 -105 -10 -11 -18 -23 -18
-27 0 -6 -86 -62 -100 -64 -3 -1 -23 -7 -45 -13 -22 -6 -60 -11 -85 -11 -55 0
-91 -4 -85 -10 9 -8 -18 -31 -36 -31 -11 0 -19 -6 -20 -12 0 -7 -5 0 -11 16
-9 25 -8 31 13 47 27 21 44 25 33 7 -4 -7 -3 -8 4 -4 6 4 8 14 5 23 -5 12 -3
14 7 8 9 -5 11 -4 6 3 -4 7 6 31 22 55 23 31 34 65 46 132 8 50 17 101 20 115
2 14 10 46 16 72 7 26 10 54 6 63 -3 8 -1 15 5 15 5 0 8 10 5 23 -2 13 0 43 5
68 5 24 11 62 14 84 21 177 39 244 63 240 9 -2 19 -4 22 -4z m-300 -951 c0 -5
-2 -10 -4 -10 -3 0 -8 5 -11 10 -3 6 -1 10 4 10 6 0 11 -4 11 -10z"/>
<path d="M2321 1943 c-6 -21 -11 -48 -11 -60 0 -13 -6 -23 -12 -23 -10 0 -9
-3 1 -9 7 -5 11 -14 7 -20 -4 -6 -14 -57 -22 -113 -18 -128 -34 -198 -44 -198
-4 0 -10 -13 -12 -29 -3 -22 -1 -28 11 -23 9 3 12 1 7 -6 -10 -16 49 -8 100
13 21 8 44 13 50 11 8 -3 11 1 8 9 -3 7 3 18 13 24 23 12 82 121 76 139 -3 6
-1 12 4 12 13 0 5 88 -13 143 -10 29 -17 55 -16 60 1 4 -3 7 -9 7 -6 0 -8 7
-5 16 3 8 2 13 -3 10 -4 -3 -22 12 -40 34 -43 54 -76 55 -90 3z m121 -91 c83
-168 13 -339 -153 -377 -35 -8 -43 6 -26 47 7 18 21 83 31 143 31 195 48 290
53 298 10 16 64 -48 95 -111z"/>
<path d="M1031 2224 c-41 -52 -21 -132 59 -233 l42 -53 50 48 c81 78 108 121
108 168 0 47 -6 58 -37 75 -37 19 -62 13 -83 -21 -17 -28 -20 -30 -25 -12 -13
40 -23 49 -57 52 -29 2 -40 -2 -57 -24z m84 -23 c20 -40 42 -45 67 -16 35 41
73 31 82 -22 6 -30 -13 -66 -54 -101 -13 -12 -13 -12 0 -6 8 4 4 -5 -9 -19
-13 -15 -33 -29 -43 -33 -10 -3 -16 -10 -13 -15 4 -5 1 -9 -5 -9 -15 0 -41 26
-33 34 4 3 2 6 -4 6 -6 0 -22 23 -37 51 -27 52 -35 126 -16 145 20 20 50 13
65 -15z"/>
<path d="M1811 2176 c-11 -13 -22 -70 -56 -296 -59 -394 -69 -440 -111 -505
-56 -85 -119 -125 -198 -125 -84 0 -122 63 -107 176 4 29 10 57 13 60 4 3 30
9 60 13 67 10 116 32 151 67 81 81 122 266 78 356 -25 52 -53 68 -118 68 -118
0 -203 -98 -232 -266 -22 -122 -60 -353 -66 -397 -3 -26 -13 -59 -21 -75 -7
-15 -14 -31 -14 -36 0 -12 -46 -53 -79 -71 -16 -8 -31 -22 -35 -31 -8 -22 19
-64 42 -64 35 1 98 46 131 97 l34 51 45 -24 c84 -45 227 -22 308 48 31 27 38
29 60 19 37 -16 82 -14 151 10 81 27 154 96 194 184 25 56 29 77 29 153 0 80
-3 94 -35 157 -37 75 -56 107 -67 115 -4 3 -23 37 -43 75 -34 65 -36 74 -33
150 1 44 -1 86 -5 93 -11 16 -62 15 -76 -2z m61 -95 c-1 -56 4 -94 14 -113 8
-16 12 -34 8 -40 -4 -6 -3 -8 3 -5 6 4 16 -6 22 -23 5 -17 15 -30 20 -30 6 0
10 -3 9 -7 -1 -5 10 -27 26 -50 16 -24 25 -47 20 -54 -4 -7 -3 -10 3 -6 22 14
54 -81 56 -161 1 -67 -3 -85 -30 -144 -33 -69 -80 -134 -68 -93 3 11 -1 6 -10
-12 -8 -17 -25 -35 -37 -39 -13 -4 -27 -13 -33 -19 -5 -7 -26 -16 -45 -19 -19
-3 -46 -8 -60 -10 -14 -3 -41 0 -61 6 -33 9 -41 8 -71 -15 -96 -74 -224 -98
-301 -57 -50 27 -62 25 -88 -12 -29 -40 -35 -47 -80 -81 -42 -32 -43 -32 -63
-11 -19 18 -9 31 42 58 32 16 82 89 82 119 0 10 3 17 8 17 4 0 7 10 8 23 3 57
27 217 40 264 9 29 13 57 9 63 -3 5 -3 10 2 10 4 0 9 24 10 53 1 36 13 76 36
127 38 82 72 125 112 140 58 22 162 3 151 -27 -3 -8 -2 -11 3 -8 12 7 24 -31
15 -46 -4 -8 -3 -9 4 -5 8 5 12 -5 12 -34 0 -56 -29 -182 -41 -174 -5 3 -9 -2
-9 -11 0 -19 -21 -57 -37 -68 -7 -4 -18 -13 -25 -21 -18 -17 -122 -56 -152
-56 -40 0 -56 -30 -60 -114 -3 -48 0 -76 6 -76 6 0 8 -11 6 -25 -3 -13 -2 -22
3 -20 4 3 10 1 14 -5 12 -19 80 -46 110 -44 39 4 115 33 115 44 0 5 10 7 21 5
12 -3 19 -1 15 2 -3 4 7 20 22 37 16 17 40 57 52 89 13 31 28 57 32 57 5 0 7
4 3 9 -3 5 0 31 6 58 6 26 12 66 15 88 2 22 7 51 11 65 3 14 7 36 9 50 1 14 5
41 9 60 5 19 9 46 10 60 1 14 5 33 9 43 5 9 5 24 2 32 -3 9 1 47 9 86 8 39 15
83 15 99 0 32 25 63 48 58 12 -2 15 -20 14 -87z"/>
<path d="M1490 1910 c-71 -13 -90 -37 -115 -144 -18 -76 -19 -146 -1 -168 15
-20 84 -19 108 1 7 6 23 20 36 30 12 11 24 27 26 38 3 10 9 29 14 43 5 14 12
50 16 81 11 89 -18 131 -84 119z m60 -40 c15 -29 3 -126 -24 -180 -24 -51 -78
-92 -116 -88 -24 3 -25 5 -23 78 1 82 22 152 55 187 29 31 92 32 108 3z"/>
<path d="M1855 1840 c-11 -4 -23 -6 -26 -4 -3 2 -6 -2 -6 -9 0 -7 -10 -65 -22
-130 -21 -116 -32 -191 -35 -234 0 -12 -3 -19 -5 -17 -3 2 -12 -17 -21 -43
-22 -66 -10 -94 39 -91 20 1 47 8 59 17 20 12 25 12 33 0 8 -11 9 -10 7 6 -2
11 2 20 7 20 11 0 55 41 55 52 0 3 8 15 17 25 9 11 18 24 20 31 1 7 7 30 13
52 11 44 3 165 -11 165 -5 0 -9 7 -9 16 0 18 -38 85 -53 95 -5 4 -6 12 -3 18
4 6 3 10 -3 9 -5 -2 -16 4 -23 13 -9 12 -19 15 -33 9z m15 -18 c0 -4 10 -18
23 -32 13 -14 26 -32 30 -40 4 -8 11 -22 16 -30 44 -74 50 -188 14 -255 -40
-75 -127 -135 -194 -135 -24 0 -24 7 0 61 20 44 26 74 61 297 10 67 22 127 25
132 7 12 25 13 25 2z"/>
<path d="M1071 1861 c-7 -5 -21 -54 -31 -112 -17 -100 -25 -144 -70 -434 -11
-71 -25 -157 -30 -190 -6 -33 -17 -107 -26 -165 -30 -190 -81 -308 -169 -389
-56 -50 -106 -71 -174 -71 -81 0 -120 39 -121 118 0 46 4 57 28 80 15 15 42
35 60 44 37 20 41 46 12 73 -19 17 -25 17 -58 6 -83 -30 -142 -116 -142 -211
0 -148 114 -231 276 -201 81 15 124 36 186 90 114 101 171 255 223 601 24 162
55 359 65 420 38 221 50 313 45 330 -7 21 -48 27 -74 11z m52 -38 c9 -21 9
-27 -1 -31 -7 -2 -10 -7 -7 -12 3 -4 -2 -50 -10 -101 -8 -52 -20 -123 -25
-159 -9 -55 -23 -146 -46 -285 -4 -29 -22 -143 -29 -195 -15 -97 -28 -160 -35
-160 -5 0 -6 -9 -3 -20 9 -33 -55 -200 -101 -265 -24 -33 -49 -59 -55 -57 -7
1 -10 -1 -7 -6 9 -14 -34 -47 -99 -78 -48 -22 -74 -28 -136 -28 -69 -1 -79 2
-118 31 -81 60 -104 157 -59 245 22 43 74 97 93 98 6 0 19 3 31 6 18 5 21 1
20 -23 -1 -17 -6 -27 -13 -26 -7 2 -13 -2 -13 -7 0 -6 -5 -10 -11 -10 -19 0
-57 -48 -67 -83 -13 -47 -1 -100 30 -135 14 -17 25 -32 23 -34 -11 -10 144 -8
170 3 17 7 35 13 40 13 25 2 110 89 136 139 11 21 23 36 27 33 4 -2 8 6 8 17
1 12 10 45 21 72 11 28 25 79 33 115 7 36 16 69 21 74 4 5 5 15 2 22 -3 8 -2
22 2 32 4 9 8 37 10 62 2 25 6 60 9 78 13 69 16 90 20 123 3 19 8 45 11 59 3
14 10 57 15 95 5 39 17 113 26 165 9 52 16 107 17 122 0 15 3 26 6 23 4 -2 6
11 6 28 -1 77 33 113 58 60z"/>
<path d="M2428 1317 c-83 -22 -86 -26 -68 -81 5 -17 17 -62 27 -99 20 -77 7
-73 131 -40 56 14 62 18 56 37 -4 12 -8 22 -9 24 -2 2 -28 -4 -59 -13 -57 -17
-76 -14 -76 10 0 9 -6 12 -15 9 -11 -5 -14 0 -13 20 2 26 3 26 18 7 14 -18 20
-19 63 -9 47 11 55 21 38 47 -7 11 -16 11 -54 -2 -48 -16 -57 -14 -57 14 0 14
15 23 58 35 68 20 65 17 57 43 -7 25 0 25 -97 -2z m-31 -63 c-1 -31 -2 -34
-10 -16 -5 12 -7 28 -4 36 10 26 15 18 14 -20z m60 -156 c-7 -4 -19 -8 -27 -8
-13 0 -13 1 0 10 10 6 11 10 3 10 -7 0 -13 4 -13 9 0 5 11 4 24 -2 16 -8 21
-14 13 -19z"/>
<path d="M2155 1247 c-22 -6 -42 -12 -44 -14 -2 -1 9 -52 25 -113 27 -107 29
-111 53 -108 17 2 25 8 22 18 -9 37 -5 44 29 51 64 14 97 78 68 132 -25 47
-67 57 -153 34z m8 -39 c-6 -7 -13 -20 -16 -28 -3 -9 -6 -3 -6 13 -1 19 4 27
15 27 12 0 14 -4 7 -12z m105 -36 c3 -22 -31 -52 -59 -52 -10 0 -22 13 -28 31
-15 44 -15 46 17 57 33 12 65 -5 70 -36z m32 10 c0 -15 -2 -15 -10 -2 -13 20
-13 33 0 25 6 -3 10 -14 10 -23z m-111 -108 c-6 -7 -7 -19 -3 -25 5 -8 3 -9
-5 -5 -7 5 -10 14 -7 22 3 7 1 16 -4 19 -6 4 -10 16 -10 27 0 21 0 21 20 -2
15 -17 17 -26 9 -36z m36 26 c3 -6 -1 -7 -9 -4 -18 7 -21 14 -7 14 6 0 13 -4
16 -10z"/>
<path d="M1917 1183 c-43 -13 -48 -18 -43 -36 3 -12 16 -62 28 -112 12 -49 23
-91 24 -93 1 -2 13 0 27 3 20 5 25 12 23 37 -1 26 4 31 39 43 22 8 45 22 52
32 25 34 11 101 -26 130 -21 16 -64 15 -124 -4z m-4 -53 c-7 -28 -13 -25 -13
6 0 14 4 23 9 20 5 -3 7 -15 4 -26z m105 8 c25 -25 14 -58 -24 -74 -20 -8 -37
-14 -39 -12 -4 5 -25 71 -25 79 0 18 71 24 88 7z m39 -50 c-3 -8 -6 -5 -6 6
-1 11 2 17 5 13 3 -3 4 -12 1 -19z m-111 -73 c-12 -12 -16 -13 -17 -3 -1 7 -3
24 -4 36 l-2 24 20 -20 c18 -19 19 -22 3 -37z"/>
<path d="M1640 1092 c-35 -34 -40 -45 -40 -83 1 -138 197 -165 240 -34 25 75
-26 145 -110 153 -48 4 -52 3 -90 -36z m143 -43 c41 -56 -20 -135 -86 -110
-47 18 -61 73 -29 117 24 34 87 30 115 -7z m-149 -14 c3 -8 1 -15 -4 -15 -6 0
-10 7 -10 15 0 8 2 15 4 15 2 0 6 -7 10 -15z m-3 -52 c-12 -20 -14 -14 -5 12
4 9 9 14 11 11 3 -2 0 -13 -6 -23z m24 -33 c3 -5 2 -10 -4 -10 -5 0 -13 5 -16
10 -3 6 -2 10 4 10 5 0 13 -4 16 -10z"/>
<path d="M1487 1073 c-10 -3 -16 -11 -13 -18 3 -8 8 -29 11 -49 7 -33 5 -36
-21 -41 -16 -4 -39 -11 -52 -16 -16 -6 -24 -5 -27 4 -2 6 -9 29 -15 49 -10 32
-14 36 -33 29 -24 -9 -24 -18 -3 -96 8 -27 19 -69 25 -93 10 -36 16 -43 34
-40 23 3 25 12 13 64 -6 29 -5 31 32 42 60 18 68 16 81 -28 8 -28 17 -40 31
-40 10 0 21 3 24 8 4 7 -11 72 -33 147 -5 17 -12 42 -15 58 -4 15 -10 26 -14
26 -4 -1 -15 -3 -25 -6z m46 -145 c-7 -13 -41 15 -36 29 3 7 9 10 14 7 5 -3 9
1 10 8 1 7 4 2 8 -12 5 -14 6 -28 4 -32z m-154 0 c4 6 12 7 20 3 10 -6 9 -11
-4 -24 -9 -9 -13 -21 -10 -27 3 -5 1 -10 -4 -10 -6 0 -11 6 -11 13 0 6 -3 23
-5 37 -3 14 -2 19 1 11 4 -9 9 -10 13 -3z"/>
<path d="M1128 974 c-32 -17 -45 -56 -30 -89 11 -25 63 -45 114 -45 35 0 46
-19 23 -37 -13 -9 -34 -11 -67 -7 -38 5 -48 4 -48 -8 0 -25 23 -38 67 -38 79
0 123 39 109 95 -8 31 -31 43 -98 53 -38 5 -54 12 -56 24 -4 22 44 36 68 20
18 -11 60 -6 60 8 0 4 -8 14 -18 23 -23 21 -87 21 -124 1z m1 -74 c11 -24 11
-24 -3 -6 -9 11 -16 24 -16 30 0 12 5 7 19 -24z m76 -30 c2 -4 -7 -6 -21 -4
-35 3 -41 12 -9 12 14 0 27 -4 30 -8z m72 -41 c2 -18 1 -20 -6 -9 -5 8 -8 17
-5 21 2 4 -1 10 -6 12 -6 3 -5 4 1 3 7 -1 14 -13 16 -27z"/>
</g>
</svg>
